<?xml version="1.0" encoding="UTF-8"?><svg id="b" xmlns="http://www.w3.org/2000/svg" xmlns:xlink="http://www.w3.org/1999/xlink" viewBox="0 0 176 84"><defs><clipPath id="e"><rect width="176" height="84" fill="none"/></clipPath></defs><g id="c"><g id="d"><g clip-path="url(#e)"><g><path d="M0,14.99s9.72-.17,18.6,5.48c7.98,5.07,6.71,9.79,6.71,9.79l-4.02,23.57s-.53-13.15-4.78-22.62C10.33,17.45,0,14.99,0,14.99Z" fill="#fbaf34"/><path d="M28.11,30.88c2.15,.64,3.51,1.6,3.51,2.65,0,1.94-4.55,3.51-10.15,3.51s-10.15-1.57-10.15-3.51c0-1.15,1.61-2.17,4.08-2.82-3.55,.71-5.93,2.05-5.93,3.57,0,2.27,5.34,4.13,11.93,4.13s11.93-1.85,11.93-4.13c0-1.42-2.06-2.66-5.2-3.4" fill="#fbaf34"/><path d="M28.11,38.73c2.15,.64,3.51,1.6,3.51,2.65,0,1.94-4.55,3.51-10.15,3.51s-10.15-1.57-10.15-3.51c0-1.15,1.61-2.17,4.08-2.81-3.55,.71-5.93,2.04-5.93,3.56,0,2.27,5.34,4.13,11.93,4.13s11.93-1.85,11.93-4.13c0-1.42-2.06-2.66-5.2-3.4" fill="#fbaf34"/><path d="M28.11,47.38c2.15,.64,3.51,1.6,3.51,2.65,0,1.94-4.55,3.51-10.15,3.51s-10.15-1.57-10.15-3.51c0-1.15,1.61-2.18,4.08-2.82-3.55,.71-5.93,2.04-5.93,3.57,0,2.27,5.34,4.11,11.93,4.11s11.93-1.85,11.93-4.11c0-1.42-2.06-2.66-5.2-3.41" fill="#fbaf34"/><path d="M40.11,5.72h5.36l7.71,13.81,8.21-13.81h5.36l-10.86,18.03,11.47,19.83h-5.25l-8.92-15.51-9.27,15.51h-5.25l11.87-19.83L40.11,5.72Z" fill="#c03627"/><path d="M75.18,43.58h-4.51V24.31h-2.45v-4.22h2.45V11.1h4.51v8.99h4.41v4.22h-4.41v19.28Z" fill="#c03627"/><path d="M103.52,43.59h-4.5v-3.67h-.11c-1.8,2.66-4.6,4.47-7.97,4.47-7.17,0-11.23-5.98-11.23-12.71s4.26-12.31,11.07-12.31c3.45,0,6.26,1.8,8.11,4.62h.11v-3.92h4.5v23.5h.01Zm-4.26-11.74c0-4.57-2.75-8.43-7.62-8.43s-7.41,4.07-7.41,8.43,2.66,8.53,7.41,8.53,7.62-3.92,7.62-8.53Z" fill="#c03627"/><path d="M113.4,23.24h.1c1.4-2.5,4.2-3.86,7.06-3.86,6.62,0,8.32,4.47,8.32,10.19v14.01h-4.5v-13.46c0-4.02-.56-6.73-5.15-6.73-5.82,0-5.82,5.12-5.82,9.39v10.79h-4.5V20.09h4.5v3.16Z" fill="#c03627"/><path d="M152.07,39.92h-.1c-1.8,2.66-4.66,4.47-7.97,4.47-7.22,0-11.21-5.98-11.21-12.71s4.26-12.31,11.02-12.31c3.5,0,6.31,1.8,8.16,4.62h.1V0h4.5V43.59h-4.5v-3.67Zm.25-8.08c0-4.57-2.75-8.43-7.62-8.43s-7.41,4.07-7.41,8.43,2.66,8.53,7.41,8.53,7.62-3.92,7.62-8.53Z" fill="#c03627"/><path d="M167.44,20.09h-4.5v23.5h4.5V20.09Z" fill="#c03627"/><path d="M168.53,14.71c0,1.77-1.42,3.19-3.19,3.19s-3.19-1.43-3.19-3.19,1.42-3.19,3.19-3.19,3.19,1.43,3.19,3.19Z" fill="#c03627"/><path d="M172.67,36.96c1.81,0,3.33,1.43,3.33,3.32s-1.52,3.34-3.33,3.34-3.34-1.43-3.34-3.34,1.53-3.32,3.34-3.32Zm0,6.17c1.53,0,2.73-1.22,2.73-2.86s-1.18-2.82-2.73-2.82-2.74,1.23-2.74,2.82,1.2,2.86,2.74,2.86Zm-1.29-4.79h1.51c.92,0,1.35,.36,1.35,1.11,0,.7-.45,1-1.01,1.06l1.11,1.72h-.65l-1.06-1.67h-.64v1.67h-.6v-3.9Zm.6,1.73h.63c.53,0,1.03-.02,1.03-.64,0-.52-.43-.6-.85-.6h-.8v1.23h-.01Z" fill="#c03627"/><path d="M44.27,46.78c-1.98,3.47-2.96,7.44-2.96,11.46s.97,7.99,2.96,11.46h-1.1c-2.5-4.08-3.38-7.9-3.38-11.46s.89-7.37,3.38-11.46h1.1Z" fill="#010101"/><path d="M53.86,60.5c-.23,2.88-1.81,4.79-4.35,4.79-2.85,0-4.53-2-4.53-7.09,0-4.69,1.68-7.07,4.66-7.07s4.36,2.07,4.36,6.58v.56h-7.38v.64c0,3.9,1.38,5.11,2.87,5.11,1.61,0,2.6-1.15,2.85-3.52h1.51Zm-1.5-3.5c-.05-3.36-.99-4.59-2.87-4.59s-2.82,1.22-2.87,4.59h5.75Z" fill="#010101"/><path d="M56.39,51.44h1.38v1.89h.05c.76-1.5,2.09-2.19,3.46-2.19,2.06,0,3.46,1.08,3.46,3.62v10.22h-1.53v-9.8c0-1.86-.76-2.78-2.32-2.78-1.77,0-2.98,1.38-2.98,3.47v9.11h-1.53v-13.54h.01Z" fill="#010101"/><path d="M66.67,63.71l6.41-10.99h-6.08v-1.28h7.71v1.28l-6.41,10.99h6.41v1.28h-8.04v-1.28Z" fill="#010101"/><path d="M76.36,55.47c0-2.78,1.33-4.33,4.18-4.33s3.81,1.45,3.81,3.59v8.01c0,.76,.25,1.13,.78,1.13h.43v1.13c-.28,.1-.51,.16-.71,.16-1.2,0-1.96-.28-1.96-1.68v-.46h-.05c-.62,1.79-1.98,2.3-3.49,2.3-2.37,0-3.44-1.48-3.44-3.82,0-1.79,.81-3.22,2.73-3.75l2.87-.81c1.07-.3,1.3-.56,1.3-2.14,0-1.73-.97-2.35-2.34-2.35-1.81,0-2.6,1.1-2.6,3.06h-1.53v-.02Zm6.47,1.86h-.05c-.16,.46-1.01,.74-1.63,.9l-1.27,.33c-1.52,.41-2.32,1.2-2.32,2.81s.82,2.65,2.14,2.65c1.86,0,3.13-1.4,3.13-3.82v-2.86Z" fill="#010101"/><path d="M89.12,46.78h-1.53v18.21h1.53v-18.21Z" fill="#010101"/><path d="M92.16,51.44h1.53v9.53c0,2.19,.74,3.04,2.34,3.04,1.73,0,2.96-1.38,2.96-3.47v-9.11h1.52v13.54h-1.38v-1.89h-.05c-.76,1.5-2.09,2.19-3.46,2.19-2.06,0-3.46-1.06-3.46-3.62v-10.22h0Z" fill="#010101"/><path d="M104.03,52.72h-1.86v-1.27h1.86v-3.75h1.53v3.75h2.39v1.27h-2.39v9.72c0,1.08,.46,1.43,1.45,1.43,.3,0,.62-.05,.94-.16v1.27c-.18,.1-.56,.16-1.06,.16-2.06,0-2.85-.56-2.85-2.37v-10.06h-.01Z" fill="#010101"/><path d="M109.33,55.47c0-2.78,1.33-4.33,4.18-4.33s3.81,1.45,3.81,3.59v8.01c0,.76,.25,1.13,.79,1.13h.43v1.13c-.28,.1-.51,.16-.71,.16-1.19,0-1.96-.28-1.96-1.68v-.46h-.05c-.61,1.79-1.98,2.3-3.49,2.3-2.37,0-3.44-1.48-3.44-3.82,0-1.79,.81-3.22,2.73-3.75l2.87-.81c1.07-.3,1.3-.56,1.3-2.14,0-1.73-.97-2.35-2.34-2.35-1.81,0-2.6,1.1-2.6,3.06h-1.53v-.02Zm6.46,1.86h-.05c-.16,.46-1.01,.74-1.63,.9l-1.27,.33c-1.53,.41-2.32,1.2-2.32,2.81s.81,2.65,2.14,2.65c1.86,0,3.13-1.4,3.13-3.82v-2.86Z" fill="#010101"/><path d="M120.54,51.44h1.38v1.89h.05c.71-1.5,1.93-2.19,3.44-2.19,1.63,0,2.62,.99,2.82,2.37h.05c.62-1.5,1.7-2.37,3.44-2.37,1.88,0,3.13,1.08,3.13,3.5v10.36h-1.52v-10.13c0-1.61-.74-2.44-2.11-2.44-1.53,0-2.75,1.38-2.75,3.47v9.11h-1.53v-10.13c0-1.61-.74-2.44-2.11-2.44-1.53,0-2.75,1.38-2.75,3.47v9.11h-1.53v-13.58Z" fill="#010101"/><path d="M138.01,46.78h1.53v2.6h-1.53v-2.6Zm0,4.67h1.53v13.54h-1.53v-13.54Z" fill="#010101"/><path d="M149.72,62.74h-.05c-.41,1.56-1.7,2.55-3.31,2.55-2.98,0-4.32-2.4-4.32-7.09s1.35-7.07,4.32-7.07c1.68,0,2.82,.92,3.15,2.35h.05v-6.7h1.52v18.21h-1.38v-2.24h.01Zm-3.1,1.26c1.56,0,2.96-.79,2.96-5.82s-1.4-5.8-2.96-5.8-2.96,.79-2.96,5.8,1.42,5.82,2.96,5.82Z" fill="#010101"/><path d="M162.21,60.5c-.23,2.88-1.81,4.79-4.36,4.79-2.85,0-4.53-2-4.53-7.09,0-4.69,1.68-7.07,4.66-7.07s4.35,2.07,4.35,6.58v.56h-7.38v.64c0,3.9,1.38,5.11,2.87,5.11,1.61,0,2.6-1.15,2.85-3.52h1.53Zm-1.5-3.5c-.05-3.36-.99-4.59-2.87-4.59s-2.82,1.22-2.87,4.59h5.75Z" fill="#010101"/><path d="M163.06,69.69c1.98-3.47,2.96-7.45,2.96-11.46s-.97-7.99-2.96-11.46h1.1c2.5,4.08,3.38,7.9,3.38,11.46s-.89,7.37-3.38,11.46h-1.1Z" fill="#010101"/><path d="M44.01,79.12h-3.74v-.5l3.69-6.22h.54v6.27h1.12v.44h-1.12v2.48h-.49v-2.48h0Zm0-5.86h-.02l-3.22,5.42h3.25v-5.42Z" fill="#010101"/><path d="M49.17,72.42c1.91,0,2.56,1.42,2.56,4.67s-.83,4.67-2.56,4.67c-1.86,0-2.56-1.44-2.56-4.67s.8-4.67,2.56-4.67Zm0,8.91c1.27,0,2.02-.79,2.02-4.24,0-1.73,0-4.24-2.02-4.24s-2.02,2.82-2.02,4.24c0,3.5,.75,4.24,2.02,4.24Z" fill="#010101"/><path d="M56.12,74.82h.49v1.02h.02c.19-.7,.78-1.17,1.63-1.17,1.05,0,1.38,.65,1.46,1.27h.02c.1-.5,.59-1.27,1.65-1.27s1.62,.65,1.62,1.73v5.22h-.49v-5.11c0-.91-.47-1.4-1.17-1.4-1.01,0-1.56,.83-1.56,2v4.5h-.49v-4.86c0-1.02-.34-1.63-1.19-1.63-1.06,0-1.53,.93-1.53,2v4.5h-.49v-6.79h.04Z" fill="#010101"/><path d="M68.6,81.23c0,1.67-.49,2.76-2.17,2.76s-1.83-1.33-1.83-1.68h.5c0,.7,.43,1.25,1.4,1.25,1.16,0,1.63-.67,1.63-2.08v-1.25h-.04c-.19,.59-.58,1.38-1.77,1.38-1.59,0-2.03-1.57-2.03-3.42s.35-3.52,2.14-3.52c.88,0,1.42,.5,1.68,1.28h.02v-1.13h.49v6.41h-.01Zm-2.15-.06c1.23,0,1.65-1.25,1.65-3.09,0-1.97-.53-2.98-1.59-2.98s-1.71,.76-1.71,3.07c0,1.74,.36,2.99,1.64,2.99" fill="#010101"/><path d="M72.5,74.82h.92v-2.01h.49v2.01h1.12v.44h-1.12v5.23c0,.65,.31,.75,.59,.75,.21,0,.39-.01,.6-.07v.44c-.24,.05-.51,.07-.7,.07-.7,0-1-.4-1-1.14v-5.29h-.92v-.44h.01Z" fill="#010101"/><path d="M79.34,80.79c0,.33,.13,.45,.3,.45,.12,0,.22-.01,.31-.06v.39c-.11,.08-.3,.12-.52,.12-.21,0-.58-.21-.58-.74v-.42h-.02c-.19,.7-.87,1.25-1.77,1.25-1.18,0-1.69-.85-1.69-1.9s.41-1.61,1.38-1.86l1.46-.4c.58-.16,.66-.42,.66-1,0-1.23-.57-1.49-1.3-1.49-1.15,0-1.47,.71-1.47,1.65h-.5c0-.92,.34-2.09,1.92-2.09,1.48,0,1.85,.81,1.85,1.79v4.33h-.02Zm-.5-3.15h-.02c-.17,.27-.35,.31-.86,.45l-.99,.28c-.78,.22-1.07,.69-1.07,1.49,0,.88,.39,1.45,1.24,1.45,1.15,0,1.71-.91,1.71-2.27v-1.4h-.01Z" fill="#010101"/><path d="M80.77,72.34h.49v3.67h.02c.24-.73,.69-1.34,1.74-1.34,1.69,0,2.09,1.55,2.09,3.53,0,2.11-.53,3.57-2.11,3.57-.94,0-1.55-.54-1.71-1.46h-.02v1.31h-.49v-9.27Zm.49,5.86c0,1.98,.46,3.13,1.65,3.13,1.34,0,1.64-1.4,1.64-3.13,0-2.12-.41-3.09-1.56-3.09-1.24,0-1.75,1-1.75,3.09" fill="#010101"/><path d="M86.81,72.34h-.49v9.27h.49v-9.27Z" fill="#010101"/><path d="M88.56,78.18c0,1.09,.01,3.15,1.59,3.15,1.42,0,1.65-1.43,1.65-1.94h.49c0,1.04-.57,2.37-2.1,2.37-1.75,0-2.18-1.43-2.18-3.74,0-2.08,.74-3.36,2.27-3.36s2.11,1.33,2.11,3.52h-3.84Zm3.3-.44c0-1.23-.19-2.64-1.59-2.64-1.5,0-1.7,1.75-1.7,2.64h3.3Z" fill="#010101"/><path d="M92.89,74.82h.92v-2.01h.49v2.01h1.12v.44h-1.12v5.23c0,.65,.31,.75,.59,.75,.21,0,.39-.01,.6-.07v.44c-.24,.05-.51,.07-.7,.07-.7,0-1-.4-1-1.14v-5.29h-.92v-.44h.01Z" fill="#010101"/><path d="M99,76.73v-.19c0-.61-.16-1.43-1.27-1.43-.71,0-1.3,.36-1.3,1.26,0,.71,.34,1.08,1.01,1.33l1.04,.39c.82,.31,1.23,.88,1.23,1.8,0,1.14-.88,1.86-1.96,1.86-1.88,0-2-1.36-2-2.14v-.18h.49v.22c0,.96,.39,1.66,1.52,1.66,.99,0,1.41-.67,1.41-1.42,0-.65-.27-1.09-1.01-1.39l-1-.4c-.85-.34-1.27-.83-1.27-1.71,0-1.13,.77-1.75,1.85-1.75,1.5,0,1.76,1.03,1.76,1.85v.21h-.49v.04Z" fill="#010101"/><path d="M109.85,76.7v-.02c-1-.19-1.52-1.04-1.52-2.01,0-1.36,.86-2.25,2.28-2.25s2.28,.9,2.28,2.25c0,.94-.47,1.78-1.47,2.01v.02c1.09,.16,1.76,1.04,1.76,2.43,0,1.61-.99,2.64-2.58,2.64s-2.55-1.03-2.55-2.64c0-1.39,.76-2.27,1.8-2.43Zm.76,4.62c1.21,0,2.02-.83,2.02-2.19,0-1.54-.77-2.24-2.02-2.24-1.12,0-2.02,.7-2.02,2.24,0,1.37,.76,2.19,2.02,2.19Zm0-8.46c-1.11,0-1.74,.75-1.74,1.8,0,1.14,.71,1.79,1.74,1.79s1.74-.65,1.74-1.79c0-1.05-.63-1.8-1.74-1.8Z" fill="#010101"/><path d="M116.83,72.42c1.91,0,2.56,1.42,2.56,4.67s-.83,4.67-2.56,4.67c-1.86,0-2.56-1.44-2.56-4.67s.81-4.67,2.56-4.67Zm0,8.91c1.27,0,2.02-.79,2.02-4.24,0-1.73,0-4.24-2.02-4.24s-2.02,2.82-2.02,4.24c0,3.5,.75,4.24,2.02,4.24Z" fill="#010101"/><path d="M123.78,74.82h.49v1.02h.03c.19-.7,.78-1.17,1.63-1.17,1.05,0,1.38,.65,1.46,1.27h.02c.1-.5,.59-1.27,1.65-1.27s1.62,.65,1.62,1.73v5.22h-.5v-5.11c0-.91-.47-1.4-1.16-1.4-1.01,0-1.56,.83-1.56,2v4.5h-.5v-4.86c0-1.02-.34-1.63-1.19-1.63-1.06,0-1.53,.93-1.53,2v4.5h-.5v-6.79h.03Z" fill="#010101"/><path d="M136.27,81.23c0,1.67-.49,2.76-2.17,2.76s-1.83-1.33-1.83-1.68h.49c0,.7,.44,1.25,1.4,1.25,1.15,0,1.63-.67,1.63-2.08v-1.25h-.04c-.19,.59-.58,1.38-1.77,1.38-1.59,0-2.03-1.57-2.03-3.42s.35-3.52,2.14-3.52c.88,0,1.43,.5,1.69,1.28h.02v-1.13h.49v6.41h-.02Zm-2.15-.06c1.23,0,1.65-1.25,1.65-3.09,0-1.97-.53-2.98-1.59-2.98s-1.71,.76-1.71,3.07c0,1.74,.36,2.99,1.64,2.99" fill="#010101"/><path d="M140.17,74.82h.92v-2.01h.5v2.01h1.12v.44h-1.12v5.23c0,.65,.31,.75,.59,.75,.21,0,.39-.01,.6-.07v.44c-.24,.05-.51,.07-.7,.07-.7,0-1-.4-1-1.14v-5.29h-.92v-.44h.01Z" fill="#010101"/><path d="M147.01,80.79c0,.33,.13,.45,.3,.45,.12,0,.22-.01,.31-.06v.39c-.11,.08-.3,.12-.52,.12-.21,0-.58-.21-.58-.74v-.42h-.02c-.19,.7-.87,1.25-1.77,1.25-1.18,0-1.69-.85-1.69-1.9s.41-1.61,1.38-1.86l1.46-.4c.58-.16,.66-.42,.66-1,0-1.23-.57-1.49-1.3-1.49-1.13,0-1.47,.71-1.47,1.65h-.49c0-.92,.34-2.09,1.92-2.09,1.49,0,1.85,.81,1.85,1.79v4.33h-.02Zm-.5-3.15h-.02c-.17,.27-.35,.31-.86,.45l-1,.28c-.8,.22-1.07,.69-1.07,1.49,0,.88,.39,1.45,1.24,1.45,1.16,0,1.71-.91,1.71-2.27v-1.4h0Z" fill="#010101"/><path d="M148.43,72.34h.49v3.67h.02c.24-.73,.69-1.34,1.74-1.34,1.7,0,2.09,1.55,2.09,3.53,0,2.11-.53,3.57-2.11,3.57-.94,0-1.54-.54-1.71-1.46h-.02v1.31h-.49v-9.27Zm.49,5.86c0,1.98,.46,3.13,1.65,3.13,1.34,0,1.64-1.4,1.64-3.13,0-2.12-.41-3.09-1.56-3.09-1.24,0-1.75,1-1.75,3.09" fill="#010101"/><path d="M154.46,72.34h-.49v9.27h.49v-9.27Z" fill="#010101"/><path d="M156.21,78.18c0,1.09,.01,3.15,1.59,3.15,1.43,0,1.65-1.43,1.65-1.94h.49c0,1.04-.57,2.37-2.1,2.37-1.75,0-2.18-1.43-2.18-3.74,0-2.08,.74-3.36,2.27-3.36s2.11,1.33,2.11,3.52h-3.84Zm3.28-.44c0-1.23-.19-2.64-1.59-2.64-1.51,0-1.7,1.75-1.7,2.64h3.29Z" fill="#010101"/><path d="M160.55,74.82h.92v-2.01h.49v2.01h1.12v.44h-1.12v5.23c0,.65,.31,.75,.59,.75,.21,0,.39-.01,.6-.07v.44c-.25,.05-.51,.07-.7,.07-.7,0-1-.4-1-1.14v-5.29h-.92v-.44h.01Z" fill="#010101"/><path d="M166.66,76.73v-.19c0-.61-.16-1.43-1.27-1.43-.71,0-1.3,.36-1.3,1.26,0,.71,.34,1.08,1.01,1.33l1.04,.39c.82,.31,1.23,.88,1.23,1.8,0,1.14-.88,1.86-1.96,1.86-1.88,0-2-1.36-2-2.14v-.18h.49v.22c0,.96,.39,1.66,1.52,1.66,.99,0,1.41-.67,1.41-1.42,0-.65-.27-1.09-1.01-1.39l-1-.4c-.85-.34-1.27-.83-1.27-1.71,0-1.13,.77-1.75,1.85-1.75,1.5,0,1.76,1.03,1.76,1.85v.21h-.49v.04Z" fill="#010101"/><path d="M104.16,71.44v11.86" fill="none" stroke="#fbaf34" stroke-width=".74"/></g></g></g></g></svg>